<svg width="263" height="228" viewBox="0 0 263 228" fill="none" xmlns="http://www.w3.org/2000/svg">
<path d="M143.541 227H87.4548C80.8273 227 75.4548 221.627 75.4548 215V86C75.4548 83.0124 73.0328 80.5905 70.0453 80.5905H68H12.5C5.87258 80.5905 0.5 75.2179 0.5 68.5905V12.5C0.5 5.87258 5.87258 0.5 12.5 0.5H250.5C257.127 0.5 262.5 5.87257 262.5 12.5V68.5905C262.5 75.2179 257.127 80.5905 250.5 80.5905H163.5H160.955C157.96 80.5905 155.525 83.0051 155.5 86L155.541 214.996C155.544 221.625 150.17 227 143.541 227Z" fill="#F8F9FA" stroke="#D1D5DC"/>
<path d="M134.197 213.5H96.8032C92.3849 213.5 88.8032 209.918 88.8032 205.5V74.8937C88.8032 70.4754 85.2215 66.8937 80.8032 66.8937H23.5C19.0817 66.8937 15.5 63.3119 15.5 58.8937V21.5C15.5 17.0817 19.0817 13.5 23.5 13.5H242C246.418 13.5 250 17.0817 250 21.5V58.8937C250 63.3119 246.418 66.8937 242 66.8937H150.197C145.779 66.8937 142.197 70.4754 142.197 74.8937V205.5C142.197 209.918 138.615 213.5 134.197 213.5Z" fill="white" stroke="#D1D5DC"/>
</svg>
